# xmcd
#
# Track frame offsets:
#	150
#	21305
#	43419
#	44410
#	77233
#	97954
#	117705
#	134071
#	145495
#	168509
#	174364
#	183363
#	208264
#	210718
#	215512
#	217389
#	232928
#	244203
#
# Disc length: 3600 seconds
#
# Revision: 1
# Processed by: cddbd v1.5.1PL0 Copyright (c) Steve Scherf et al.
# Submitted via: CDex 1.50Beta5
#
DISCID=250e0e12
DTITLE=山本精一 - なぞなぞ
DYEAR=2003
DGENRE=Folk
TTITLE0=もの投げるなや
TTITLE1=何かある
TTITLE2=アフタービーツ
TTITLE3=泥棒の君
TTITLE4=沈黙
TTITLE5=赤ん坊の眼
TTITLE6=B1のシャケ
TTITLE7=たくさんの顔
TTITLE8=あんなに好きだったこと
TTITLE9=たぬき
TTITLE10=たのしいと思えたら
TTITLE11=人形が好きなんだ
TTITLE12=サジタリアス
TTITLE13=食堂
TTITLE14="Sigh”
TTITLE15=ヤシガニさん
TTITLE16=弱虫
TTITLE17=名前なんてつけたくないうた
EXTD=
EXTT0=
EXTT1=
EXTT2=
EXTT3=
EXTT4=
EXTT5=
EXTT6=
EXTT7=
EXTT8=
EXTT9=
EXTT10=
EXTT11=
EXTT12=
EXTT13=
EXTT14=
EXTT15=
EXTT16=
EXTT17=
PLAYORDER=
